:SAMPLES-PER-SECOND 30
:FULLY-SPECIFIED
:DEGREES
466
root  -4.69565 41.025 0.0989265 48.8167 -88.4833 -44.5193
RightUpLeg  2.53979 -0.991913 -0.527111
RightLeg  -8.14588 -21.1474 4.24555
RightFoot  2.48625 -0.303171 2.63917
RightToes  -3.1126e-008 1.75238e-005 3.56266e-009
Spine  12.1289 1.76152 -3.06583
Spine1  -19.8871 1.51933 1.01587
HEad  1.55545 -6.30817 4.26975
LeftShoulder1  -0.132737 4.10938 -15.0027
LeftArm  -50.741 38.212 -31.917
LeftForeArm  73.6108 -79.3045 -64.645
LeftHand  -0.544411 -4.63162 6.59572
RightShoulder  0.34661 -1.90909 15.1693
RightArm  -39.5049 -4.27445 22.6044
RightForeArm  29.8955 73.1913 37.8495
RightHand  -0.0099504 7.94761 -0.461054
LeftUpLeg  1.42295 1.37919 3.81401
LeftLeg  -5.02922 16.3633 -1.34356
LeftFoot  0.885103 0.381717 -3.62511
LeftToes  4.78049e-008 1.46235e-008 1.34219e-009
467
root  -4.7136 41.0254 0.0916681 56.9071 -88.6768 -52.5741
RightUpLeg  2.46572 -0.963426 -0.516944
RightLeg  -8.07605 -20.9343 4.17792
RightFoot  2.47687 -0.30588 2.66278
RightToes  -3.1126e-008 1.75238e-005 3.56266e-009
Spine  11.9626 1.99452 -3.08866
Spine1  -19.4241 1.74594 0.937902
HEad  1.00389 -6.41892 4.06277
LeftShoulder1  -0.128502 4.08918 -15.0541
LeftArm  -50.2332 38.2538 -31.1046
LeftForeArm  72.2309 -79.1884 -63.4526
LeftHand  -0.530361 -4.60399 6.45103
RightShoulder  0.444894 -1.49521 15.5873
RightArm  -39.8312 -4.35853 22.6184
RightForeArm  29.5001 73.0298 37.3967
RightHand  -0.0333834 7.70245 -0.668058
LeftUpLeg  1.48171 1.33526 3.78496
LeftLeg  -5.0948 16.7181 -1.33956
LeftFoot  0.894336 0.386037 -3.70119
LeftToes  4.78049e-008 1.46235e-008 1.34219e-009
468
root  -4.7245 41.0254 0.0813199 54.8306 -88.5879 -50.532
RightUpLeg  2.55039 -0.899085 -0.43296
RightLeg  -8.13453 -21.077 4.18498
RightFoot  2.47573 -0.293648 2.55442
RightToes  -3.1126e-008 1.75238e-005 3.56266e-009
Spine  11.6668 2.0808 -3.28634
Spine1  -18.7807 1.81791 1.30455
HEad  0.631582 -5.9922 3.66553
LeftShoulder1  -0.0849777 3.89147 -15.0205
LeftArm  -49.2827 38.224 -30.5648
LeftForeArm  71.8317 -79.1656 -63.401
LeftHand  -0.523625 -4.17266 6.63183
RightShoulder  0.500988 -1.2548 15.6859
RightArm  -39.4592 -3.80969 22.9161
RightForeArm  28.7869 72.7305 36.5792
RightHand  -0.0699766 7.3543 -0.999088
LeftUpLeg  1.44778 1.42459 3.86275
LeftLeg  -4.93549 16.5009 -1.32151
LeftFoot  0.84852 0.379658 -3.60551
LeftToes  4.78049e-008 1.46235e-008 1.34219e-009
469
root  -4.72752 41.0252 0.0744633 47.8819 -88.4384 -43.7228
RightUpLeg  2.69015 -0.903571 -0.409697
RightLeg  -8.0637 -21.3184 4.17728
RightFoot  2.43104 -0.282186 2.47415
RightToes  -3.1126e-008 1.75238e-005 3.56266e-009
Spine  11.4554 2.0259 -3.25709
Spine1  -18.1613 1.76704 1.33314
HEad  0.853021 -5.86621 3.31483
LeftShoulder1  -0.0747148 3.84733 -14.8644
LeftArm  -47.7226 37.5854 -30.2453
LeftForeArm  72.4282 -79.2203 -64.0071
LeftHand  -0.524377 -4.0831 6.6984
RightShoulder  0.564526 -0.988635 15.8572
RightArm  -38.7004 -2.70838 23.4301
RightForeArm  28.8223 72.6456 36.3016
RightHand  -0.066752 7.60297 -0.961744
LeftUpLeg  1.54388 1.44085 3.87011
LeftLeg  -4.88431 16.2648 -1.28342
LeftFoot  0.868072 0.371516 -3.4787
LeftToes  4.78049e-008 1.46235e-008 1.34219e-009
470
root  -4.71609 41.0248 0.0779439 42.0907 -88.2688 -37.9779
RightUpLeg  2.71396 -0.868393 -0.376336
RightLeg  -8.02799 -21.6306 4.14492
RightFoot  2.4288 -0.274367 2.39893
RightToes  -3.1126e-008 1.75238e-005 3.56266e-009
Spine  11.2025 2.07089 -3.09201
Spine1  -17.6689 1.82513 1.2246
HEad  0.989944 -5.89472 3.28893
LeftShoulder1  0.00593167 3.47685 -15.143
LeftArm  -46.2254 36.8721 -29.9674
LeftForeArm  73.6571 -79.3351 -65.4694
LeftHand  -0.517202 -4.20875 6.53615
RightShoulder  0.574927 -0.951662 15.9315
RightArm  -37.8504 -1.45008 24.3506
RightForeArm  28.9235 72.5541 35.9928
RightHand  -0.116188 7.5639 -1.40369
LeftUpLeg  1.52994 1.41464 3.84748
LeftLeg  -4.87317 16.103 -1.25439
LeftFoot  0.934084 0.368426 -3.42836
LeftToes  4.78049e-008 1.46235e-008 1.34219e-009
471
root  -4.7164 41.0245 0.0874773 37.3761 -88.1194 -33.3235
RightUpLeg  2.83383 -0.886333 -0.394453
RightLeg  -8.119 -21.8686 4.19578
RightFoot  2.44604 -0.266979 2.3219
RightToes  -3.1126e-008 1.75238e-005 3.56266e-009
Spine  10.7321 2.01125 -2.92169
Spine1  -16.9373 1.78613 1.1036
HEad  0.929697 -5.80947 3.32802
LeftShoulder1  0.0523155 3.26801 -15.3402
LeftArm  -44.5793 36.4299 -29.9429
LeftForeArm  74.9437 -79.4524 -67.2662
LeftHand  -0.514879 -4.42084 6.39133
RightShoulder  0.707225 -0.437853 16.4997
RightArm  -37.7489 0.143897 25.1241
RightForeArm  28.9368 72.3164 35.2665
RightHand  -0.00314747 7.70318 -0.396777
LeftUpLeg  1.58302 1.42421 3.83992
LeftLeg  -4.89771 15.9041 -1.28099
LeftFoot  0.923442 0.375825 -3.5406
LeftToes  4.78049e-008 1.46235e-008 1.34219e-009
472
root  -4.71087 41.0241 0.108176 36.1436 -88.1899 -32.0833
RightUpLeg  2.76579 -0.909125 -0.484767
RightLeg  -8.00459 -21.8357 4.11038
RightFoot  2.39174 -0.272628 2.42777
RightToes  -3.1126e-008 1.75238e-005 3.56266e-009
Spine  10.3867 2.05303 -2.61177
Spine1  -16.4942 1.85685 0.813591
HEad  1.0064 -5.91832 3.11381
LeftShoulder1  0.0579118 3.24415 -15.4546
LeftArm  -41.8095 36.3687 -30.1533
LeftForeArm  76.3172 -79.5599 -69.0042
LeftHand  -0.594259 -3.79171 7.77276
RightShoulder  0.803965 -0.0961188 17.068
RightArm  -37.6008 2.58977 26.4404
RightForeArm  28.227 72.1413 34.9101
RightHand  -0.0495754 7.86187 -0.806699
LeftUpLeg  1.54456 1.37323 3.73262
LeftLeg  -4.84461 15.9037 -1.28683
LeftFoot  0.938618 0.367711 -3.41211
LeftToes  4.78049e-008 1.46235e-008 1.34219e-009
473
root  -4.6984 41.0239 0.134743 38.0164 -88.5087 -33.9112
RightUpLeg  2.56997 -0.946167 -0.632278
RightLeg  -7.78199 -21.5372 3.9003
RightFoot  2.338 -0.273709 2.41311
RightToes  -3.1126e-008 1.75238e-005 3.56266e-009
Spine  10.0468 2.15214 -2.44888
Spine1  -16.1245 1.96867 0.763745
HEad  0.780486 -5.8301 2.6166
LeftShoulder1  0.103462 3.04291 -15.5927
LeftArm  -38.264 37.2193 -30.284
LeftForeArm  78.0043 -79.6672 -70.4749
LeftHand  -0.547657 -4.20606 6.90031
RightShoulder  0.861257 0.109801 17.3183
RightArm  -37.0123 6.09049 27.8973
RightForeArm  28.1702 71.9015 34.2513
RightHand  -0.0156869 7.61211 -0.508871
LeftUpLeg  1.62149 1.27593 3.55826
LeftLeg  -5.05895 16.3043 -1.41266
LeftFoot  0.99614 0.37452 -3.51823
LeftToes  4.78049e-008 1.46235e-008 1.34219e-009
474
root  -4.69732 41.0239 0.175911 53.404 -89.0395 -49.3708
RightUpLeg  2.44118 -0.9518 -0.802644
RightLeg  -7.44787 -20.9652 3.54856
RightFoot  2.30264 -0.2905 2.55856
RightToes  -3.1126e-008 1.75238e-005 3.56266e-009
Spine  9.96262 2.23836 -2.0215
Spine1  -16.2217 2.08788 0.377413
HEad  0.914216 -5.83068 1.97008
LeftShoulder1  0.202277 2.6051 -15.687
LeftArm  -34.6634 38.9359 -30.5807
LeftForeArm  79.0907 -79.7273 -71.0479
LeftHand  -0.551768 -4.38497 6.83285
RightShoulder  0.989186 0.637055 17.3638
RightArm  -36.0352 10.8793 29.1895
RightForeArm  27.2731 71.1728 32.514
RightHand  0.010279 7.75786 -0.278006
LeftUpLeg  1.96076 1.18397 3.32995
LeftLeg  -5.42085 17.0406 -1.61696
LeftFoot  1.02992 0.376713 -3.55623
LeftToes  4.78049e-008 1.46235e-008 1.34219e-009
475
root  -4.70979 41.0243 0.229485 99.4117 -89.2691 -95.6397
RightUpLeg  2.60285 -0.968012 -0.889066
RightLeg  -7.25608 -20.1409 3.319
RightFoot  2.3067 -0.312562 2.74242
RightToes  -3.1126e-008 1.75238e-005 3.56266e-009
Spine  9.73835 2.39224 -0.505822
Spine1  -15.9001 2.37412 -1.39749
HEad  1.0285 -5.98296 1.97113
LeftShoulder1  0.190469 2.66111 -15.7654
LeftArm  -30.7588 39.4279 -31.3835
LeftForeArm  77.6993 -79.6191 -68.527
LeftHand  -0.587598 -4.60764 7.10945
RightShoulder  1.1109 1.18645 17.1211
RightArm  -35.038 15.5725 29.2648
RightForeArm  26.5761 70.5891 31.26
RightHand  -0.0535256 7.81414 -0.8401
LeftUpLeg  2.4286 1.23013 3.24857
LeftLeg  -5.54656 17.8065 -1.74997
LeftFoot  0.919132 0.378302 -3.59007
LeftToes  4.78049e-008 1.46235e-008 1.34219e-009
